<svg xmlns="http://www.w3.org/2000/svg" viewBox="0 0 1440 320"><path fill="#1d3b36" fill-opacity="1" d="M0,32L16,53.3C32,75,64,117,96,122.7C128,128,160,96,192,96C224,96,256,128,288,128C320,128,352,96,384,74.7C416,53,448,43,480,69.3C512,96,544,160,576,181.3C608,203,640,181,672,149.3C704,117,736,75,768,74.7C800,75,832,117,864,138.7C896,160,928,160,960,149.3C992,139,1024,117,1056,96C1088,75,1120,53,1152,74.7C1184,96,1216,160,1248,208C1280,256,1312,288,1344,272C1376,256,1408,192,1424,160L1440,128L1440,320L1424,320C1408,320,1376,320,1344,320C1312,320,1280,320,1248,320C1216,320,1184,320,1152,320C1120,320,1088,320,1056,320C1024,320,992,320,960,320C928,320,896,320,864,320C832,320,800,320,768,320C736,320,704,320,672,320C640,320,608,320,576,320C544,320,512,320,480,320C448,320,416,320,384,320C352,320,320,320,288,320C256,320,224,320,192,320C160,320,128,320,96,320C64,320,32,320,16,320L0,320Z"></path></svg>