<svg xmlns="http://www.w3.org/2000/svg" viewBox="0 0 1440 320"><path fill="#1d3b36" fill-opacity="1" d="M0,128L15,149.3C30,171,60,213,90,224C120,235,150,213,180,186.7C210,160,240,128,270,122.7C300,117,330,139,360,170.7C390,203,420,245,450,250.7C480,256,510,224,540,176C570,128,600,64,630,69.3C660,75,690,149,720,181.3C750,213,780,203,810,176C840,149,870,107,900,112C930,117,960,171,990,176C1020,181,1050,139,1080,112C1110,85,1140,75,1170,101.3C1200,128,1230,192,1260,192C1290,192,1320,128,1350,112C1380,96,1410,128,1425,144L1440,160L1440,0L1425,0C1410,0,1380,0,1350,0C1320,0,1290,0,1260,0C1230,0,1200,0,1170,0C1140,0,1110,0,1080,0C1050,0,1020,0,990,0C960,0,930,0,900,0C870,0,840,0,810,0C780,0,750,0,720,0C690,0,660,0,630,0C600,0,570,0,540,0C510,0,480,0,450,0C420,0,390,0,360,0C330,0,300,0,270,0C240,0,210,0,180,0C150,0,120,0,90,0C60,0,30,0,15,0L0,0Z"></path></svg>